<svg width="22" height="22" viewBox="0 0 22 22" fill="none" xmlns="http://www.w3.org/2000/svg">
<g opacity="0.5">
<path d="M9.30063 2.97712C9.57303 2.30615 10.2313 1.83301 11 1.83301C11.7687 1.83301 12.427 2.30615 12.6994 2.97712C15.4185 3.722 17.4167 6.21082 17.4167 9.16634V13.4721L19.096 15.9912C19.2836 16.2725 19.3011 16.6342 19.1415 16.9322C18.982 17.2303 18.6714 17.4163 18.3333 17.4163H14.1758C13.9534 18.9711 12.6163 20.1663 11 20.1663C9.3837 20.1663 8.04656 18.9711 7.82416 17.4163H3.66667C3.32861 17.4163 3.01798 17.2303 2.85847 16.9322C2.69895 16.6342 2.71643 16.2725 2.90396 15.9912L4.58333 13.4721V9.16634C4.58333 6.21082 6.58151 3.722 9.30063 2.97712ZM9.70324 17.4163C9.892 17.9504 10.4013 18.333 11 18.333C11.5987 18.333 12.108 17.9504 12.2968 17.4163H9.70324ZM11 4.58301C8.4687 4.58301 6.41667 6.63504 6.41667 9.16634V13.7497C6.41667 13.9306 6.3631 14.1076 6.26271 14.2581L5.37948 15.583H16.6205L15.7373 14.2581C15.6369 14.1076 15.5833 13.9306 15.5833 13.7497V9.16634C15.5833 6.63504 13.5313 4.58301 11 4.58301Z" fill="white"/>
</g>
</svg>
