<svg width="17" height="18" viewBox="0 0 17 18" fill="none" xmlns="http://www.w3.org/2000/svg">
<path d="M13.4583 2.25C14.2407 2.25 14.875 2.92157 14.875 3.75V6.75C14.875 7.57843 14.2407 8.25 13.4583 8.25L3.54167 8.25C2.75926 8.25 2.125 7.57843 2.125 6.75L2.125 3.75C2.125 2.92157 2.75926 2.25 3.54167 2.25L13.4583 2.25ZM13.4583 6.75V3.75L3.54167 3.75L3.54167 6.75L13.4583 6.75Z" fill="white"/>
<path d="M13.4583 9.75C14.2407 9.75 14.875 10.4216 14.875 11.25V14.25C14.875 15.0784 14.2407 15.75 13.4583 15.75H3.54167C2.75926 15.75 2.125 15.0784 2.125 14.25L2.125 11.25C2.125 10.4216 2.75926 9.75 3.54167 9.75L13.4583 9.75ZM13.4583 14.25V11.25L3.54167 11.25L3.54167 14.25H13.4583Z" fill="white"/>
</svg>
