<?xml version="1.0"?>
<svg xmlns="http://www.w3.org/2000/svg" xmlns:xlink="http://www.w3.org/1999/xlink" xmlns:svgjs="http://svgjs.com/svgjs" version="1.1" width="512" height="512" x="0" y="0" viewBox="0 0 206.804 206.804" style="enable-background:new 0 0 512 512" xml:space="preserve"><g>
<path xmlns="http://www.w3.org/2000/svg" d="M196.551,85.559c-16.316-35.667-36.605-56.961-54.274-56.961c-3.553,0-6.813,0.897-9.687,2.666  c-14.3,8.801-14.953,36.288-14.979,39.323c-0.025,0.95-0.221,8.536-0.384,19.108l-5.778-2.125V8.061c0-2.209-1.791-4-4-4h-8.094  c-2.209,0-4,1.791-4,4V87.57l-5.778,2.125c-0.162-10.55-0.358-18.11-0.383-19.038c-0.027-3.105-0.679-30.593-14.98-39.394  c-2.874-1.769-6.133-2.666-9.687-2.666c-17.668,0-37.958,21.294-54.274,56.961c-21.6,47.217-2.495,111.625-1.671,114.344  c0.521,1.718,2.101,2.841,3.826,2.841c0.307,0,0.619-0.036,0.93-0.11c0.707-0.168,17.513-4.198,35.017-10.589  c24.997-9.126,37.933-18.091,39.547-27.408c1.984-11.448,2.052-43.029,1.788-66.46l10.917-4.016h5.59l10.917,4.016  c-0.264,23.446-0.196,55.015,1.788,66.46c1.615,9.317,14.551,18.282,39.547,27.408c17.504,6.391,34.31,10.42,35.017,10.589  c0.311,0.074,0.623,0.11,0.93,0.11c1.725,0,3.305-1.123,3.826-2.841C199.045,197.184,218.15,132.776,196.551,85.559z   M78.104,103.507l-28.488,14.719v11.954l2.174,6.643l5.448,5.274c1.587,1.537,1.628,4.069,0.092,5.656  c-0.785,0.811-1.829,1.218-2.875,1.218c-1.002,0-2.005-0.374-2.782-1.126l-5.87-5.682l-6.654,7.343  c-0.79,0.872-1.875,1.314-2.965,1.314c-0.958,0-1.919-0.342-2.685-1.036c-1.637-1.483-1.762-4.013-0.279-5.65l8.394-9.264V122.36  l-15.717,8.121c-0.587,0.303-1.214,0.447-1.833,0.447c-1.449,0-2.846-0.789-3.557-2.165c-1.014-1.962-0.245-4.375,1.718-5.39  l3.503-1.81l-6.264-4.996c-1.727-1.377-2.011-3.894-0.633-5.621c1.377-1.727,3.895-2.01,5.621-0.633l9.062,7.227l21.917-11.324  L36.638,91.973c-1.761-1.334-2.106-3.843-0.772-5.604c1.334-1.76,3.844-2.106,5.604-0.772l6.067,4.598l0.512-4.636  c0.243-2.195,2.217-3.771,4.415-3.537c2.196,0.243,3.779,2.219,3.537,4.415l-1.036,9.387l8.344,6.323L74.433,96.4  c1.964-1.013,4.376-0.245,5.39,1.718C80.836,100.08,80.067,102.493,78.104,103.507z M187.339,116.568l-6.264,4.996l3.502,1.81  c1.963,1.014,2.732,3.427,1.718,5.39c-0.711,1.375-2.109,2.165-3.557,2.165c-0.618,0-1.246-0.144-1.833-0.447l-15.717-8.121v12.512  l8.394,9.264c1.483,1.637,1.358,4.167-0.279,5.65c-0.766,0.694-1.727,1.036-2.685,1.036c-1.09,0-2.176-0.443-2.965-1.314  l-6.654-7.344l-5.87,5.682c-0.776,0.752-1.78,1.126-2.781,1.126c-1.046,0-2.09-0.407-2.875-1.218  c-1.537-1.587-1.495-4.12,0.092-5.656l5.448-5.274l2.174-6.644v-11.953l-28.488-14.72c-1.963-1.014-2.732-3.427-1.718-5.39  c1.014-1.963,3.428-2.732,5.39-1.718l11.124,5.748l8.344-6.323l-1.037-9.387c-0.242-2.196,1.341-4.172,3.537-4.415  c2.195-0.236,4.173,1.341,4.415,3.537l0.512,4.636l6.067-4.598c1.761-1.333,4.27-0.989,5.604,0.772  c1.334,1.761,0.989,4.27-0.772,5.604l-18.795,14.244l21.916,11.324l9.063-7.228c1.728-1.376,4.244-1.093,5.622,0.633  C189.35,112.674,189.066,115.191,187.339,116.568z" fill="#ffffff" data-original="#000000" style=""/>
<g xmlns="http://www.w3.org/2000/svg">
</g>
<g xmlns="http://www.w3.org/2000/svg">
</g>
<g xmlns="http://www.w3.org/2000/svg">
</g>
<g xmlns="http://www.w3.org/2000/svg">
</g>
<g xmlns="http://www.w3.org/2000/svg">
</g>
<g xmlns="http://www.w3.org/2000/svg">
</g>
<g xmlns="http://www.w3.org/2000/svg">
</g>
<g xmlns="http://www.w3.org/2000/svg">
</g>
<g xmlns="http://www.w3.org/2000/svg">
</g>
<g xmlns="http://www.w3.org/2000/svg">
</g>
<g xmlns="http://www.w3.org/2000/svg">
</g>
<g xmlns="http://www.w3.org/2000/svg">
</g>
<g xmlns="http://www.w3.org/2000/svg">
</g>
<g xmlns="http://www.w3.org/2000/svg">
</g>
<g xmlns="http://www.w3.org/2000/svg">
</g>
</g></svg>
