<?xml version="1.0"?>
<svg xmlns="http://www.w3.org/2000/svg" xmlns:xlink="http://www.w3.org/1999/xlink" xmlns:svgjs="http://svgjs.com/svgjs" version="1.1" width="512" height="512" x="0" y="0" viewBox="0 0 59.482 59.482" style="enable-background:new 0 0 512 512" xml:space="preserve"><g>
<g xmlns="http://www.w3.org/2000/svg">
	<path d="M24.097,0c-0.458,0-0.868,0.099-1.228,0.299c-1.557,0.308-2.555,1.296-3.292,2.025c-0.49,0.485-0.913,0.904-1.279,0.904   c0,0-0.001,0-0.001,0c-0.47-0.03-0.901-0.048-1.298-0.048c-2.712,0-4.129,0.945-5.413,3.612C11.544,6.878,11.498,6.933,11.455,7   h0.776c3.309,0,6,2.691,6,6c0,0.553-0.448,1-1,1s-1-0.447-1-1c0-2.206-1.794-4-4-4H7.51c-2.429,1.798-3.926,5.031-3.729,8.287   c0.096,1.588-0.336,4.195-1.11,5.398c-1.907,2.968-1.907,7.114,0,10.082c0.295,0.458,0.727,0.991,1.227,1.609   c0.892,1.102,2.386,2.945,2.335,3.789c-0.227,3.736,2.053,8.041,5.082,9.596c0.545,0.28,0.637,0.563,0.843,1.42   c0.023,0.093,0.048,0.194,0.073,0.296v-1.251c0-3.859,3.14-7,7-7c0.552,0,1,0.447,1,1s-0.448,1-1,1c-2.757,0-5,2.243-5,5v4.458   c0.534,0.369,1.081,0.579,1.544,0.755c0.936,0.355,1.323,0.503,1.465,1.529c0.39,2.826,2.064,4.514,4.478,4.514   c3.554,0,7.513-3.802,7.513-9.256v-37c0,0.553-0.448,1-1,1c-3.309,0-6,2.691-6,6c0,4.411-3.589,8-8,8c-0.552,0-1-0.447-1-1   s0.448-1,1-1c3.309,0,6-2.691,6-6c0-4.411,3.589-8,8-8c0.552,0,1,0.447,1,1v-9C29.232,2.227,26.171,0,24.097,0z M21.232,32.984   c0-1.934,0.754-3.753,2.123-5.121c0.391-0.391,1.023-0.391,1.414,0s0.391,1.023,0,1.414c-0.991,0.991-1.537,2.308-1.537,3.707   s0.546,2.716,1.537,3.707c0.391,0.391,0.391,1.023,0,1.414c-0.991,0.991-1.537,2.308-1.537,3.707s0.546,2.716,1.537,3.707   c0.391,0.391,0.391,1.023,0,1.414c-0.195,0.195-0.451,0.293-0.707,0.293s-0.512-0.098-0.707-0.293   c-1.369-1.368-2.123-3.188-2.123-5.121c0-1.618,0.535-3.152,1.51-4.414C21.766,36.138,21.232,34.603,21.232,32.984z M14.077,35.481   C14.077,35.482,14.077,35.482,14.077,35.481c-0.389,1.057,0.154,2.234,1.21,2.623c0.518,0.192,0.783,0.767,0.591,1.285   c-0.149,0.403-0.531,0.653-0.938,0.653c-0.115,0-0.232-0.02-0.347-0.062c-2.09-0.773-3.163-3.101-2.393-5.191   c0-0.001,0-0.002,0-0.002c0.39-1.056-0.153-2.233-1.21-2.623c-0.518-0.191-0.783-0.767-0.591-1.285   c0.191-0.518,0.769-0.781,1.285-0.592C13.776,31.062,14.849,33.391,14.077,35.481z M15.899,20.157   c-0.602,1.631-2.152,2.643-3.797,2.643c-0.464,0-0.935-0.081-1.395-0.25c-1.059-0.393-2.233,0.152-2.624,1.209   c-0.149,0.403-0.531,0.653-0.938,0.653c-0.115,0-0.232-0.02-0.346-0.062c-0.518-0.191-0.783-0.767-0.592-1.285   c0.771-2.09,3.102-3.16,5.192-2.393c1.055,0.391,2.233-0.151,2.624-1.209c0.191-0.518,0.768-0.782,1.285-0.592   C15.826,19.063,16.091,19.639,15.899,20.157z" fill="#ffffff" data-original="#000000" style=""/>
	<path d="M56.811,22.459c-0.773-1.202-1.206-3.811-1.109-5.398c0.197-3.257-1.3-6.489-3.729-8.287h-4.722c-1.654,0-3,1.346-3,3   c0,0.553-0.448,1-1,1s-1-0.447-1-1c0-2.757,2.243-5,5-5h0.776c-0.043-0.067-0.089-0.122-0.13-0.207   c-1.283-2.667-2.7-3.612-5.412-3.612c-0.397,0-0.828,0.018-1.32,0.049c-0.281,0-0.718-0.469-1.142-0.921   c-0.741-0.792-1.731-1.852-3.3-2.032L36.218,0c-3.234,0-5.967,1.832-5.967,4l0,46c0,5.454,3.959,9.255,7.513,9.256c0,0,0,0,0.001,0   c2.413,0,4.086-1.688,4.477-4.514c0.142-1.026,0.529-1.174,1.465-1.529c0.463-0.176,1.01-0.386,1.544-0.755V48c0-2.757-2.243-5-5-5   c-0.552,0-1-0.447-1-1s0.448-1,1-1c3.86,0,7,3.141,7,7v1.252c0.026-0.102,0.051-0.203,0.074-0.297   c0.207-0.856,0.298-1.141,0.843-1.42c3.028-1.555,5.308-5.858,5.082-9.596c-0.009-0.156,0.048-0.355,0.131-0.569l-2.985-3.463   C49.299,32.087,47.376,31,45.251,31c-4.411,0-8-3.589-8-8c0-0.553,0.448-1,1-1s1,0.447,1,1c0,3.309,2.691,6,6,6   c2.803,0,5.343,1.419,6.812,3.801l2.399,2.78c0.384-0.52,0.794-1.026,1.122-1.432c0.5-0.617,0.932-1.15,1.227-1.608   C58.718,29.573,58.718,25.427,56.811,22.459z M37.476,30.979c2.638,2.639,2.638,6.933,0,9.571   c-0.901,0.901-1.398,2.099-1.398,3.371s0.497,2.47,1.398,3.371c0.391,0.391,0.391,1.023,0,1.414C37.281,48.902,37.025,49,36.769,49   s-0.512-0.098-0.707-0.293c-1.279-1.279-1.984-2.979-1.984-4.785s0.705-3.506,1.984-4.785c1.858-1.859,1.858-4.884,0-6.743   c-0.391-0.391-0.391-1.023,0-1.414S37.086,30.589,37.476,30.979z M49.412,23.44c-0.394,0.068-0.786,0.103-1.173,0.103   c-3.224,0-6.087-2.317-6.664-5.599c-0.221-1.255-0.916-2.349-1.958-3.08c-1.043-0.73-2.307-1.014-3.563-0.79   c-0.545,0.09-1.063-0.269-1.158-0.813c-0.096-0.544,0.268-1.063,0.812-1.158c1.783-0.311,3.578,0.087,5.057,1.124   c1.479,1.037,2.466,2.59,2.779,4.371c0.454,2.589,2.933,4.329,5.521,3.871c0.547-0.095,1.063,0.269,1.158,0.813   C50.32,22.826,49.956,23.345,49.412,23.44z" fill="#ffffff" data-original="#000000" style=""/>
</g>
<g xmlns="http://www.w3.org/2000/svg">
</g>
<g xmlns="http://www.w3.org/2000/svg">
</g>
<g xmlns="http://www.w3.org/2000/svg">
</g>
<g xmlns="http://www.w3.org/2000/svg">
</g>
<g xmlns="http://www.w3.org/2000/svg">
</g>
<g xmlns="http://www.w3.org/2000/svg">
</g>
<g xmlns="http://www.w3.org/2000/svg">
</g>
<g xmlns="http://www.w3.org/2000/svg">
</g>
<g xmlns="http://www.w3.org/2000/svg">
</g>
<g xmlns="http://www.w3.org/2000/svg">
</g>
<g xmlns="http://www.w3.org/2000/svg">
</g>
<g xmlns="http://www.w3.org/2000/svg">
</g>
<g xmlns="http://www.w3.org/2000/svg">
</g>
<g xmlns="http://www.w3.org/2000/svg">
</g>
<g xmlns="http://www.w3.org/2000/svg">
</g>
</g></svg>
