<svg xmlns="http://www.w3.org/2000/svg" version="1.1" xmlns:xlink="http://www.w3.org/1999/xlink" xmlns:svgjs="http://svgjs.com/svgjs" width="512" height="512" x="0" y="0" viewBox="0 0 383.344 383.345" style="enable-background:new 0 0 512 512" xml:space="preserve" class=""><g>
<g xmlns="http://www.w3.org/2000/svg">
	<path d="M273.217,106.899c-27.181-44.864-57.413-83.693-73.016-102.846c-2.088-2.565-5.221-4.054-8.528-4.053   c-3.308,0-6.44,1.489-8.529,4.054c-15.602,19.159-45.834,58.001-73.015,102.869c-35.028,57.823-52.789,105.63-52.789,142.09   c0,74.071,60.261,134.332,134.332,134.332s134.332-60.261,134.332-134.332C326.005,212.529,308.246,164.715,273.217,106.899z    M210.106,333.868c-7.844,2.006-15.986,3.022-24.205,3.022c-50.186,0-91.015-37.929-91.015-84.55   c0-11.255,2.97-24.405,8.825-39.083c0.989-2.48,3.807-3.895,6.585-3.295c2.776,0.598,4.64,3.018,4.354,5.65   c-0.342,3.148-0.516,6.223-0.516,9.136c0,50.735,40.881,93.221,95.093,98.821c2.698,0.279,4.803,2.297,5.018,4.812   C214.461,330.896,212.723,333.198,210.106,333.868z" fill="#ffffff" data-original="#000000" style="" class=""></path>
</g>
<g xmlns="http://www.w3.org/2000/svg">
</g>
<g xmlns="http://www.w3.org/2000/svg">
</g>
<g xmlns="http://www.w3.org/2000/svg">
</g>
<g xmlns="http://www.w3.org/2000/svg">
</g>
<g xmlns="http://www.w3.org/2000/svg">
</g>
<g xmlns="http://www.w3.org/2000/svg">
</g>
<g xmlns="http://www.w3.org/2000/svg">
</g>
<g xmlns="http://www.w3.org/2000/svg">
</g>
<g xmlns="http://www.w3.org/2000/svg">
</g>
<g xmlns="http://www.w3.org/2000/svg">
</g>
<g xmlns="http://www.w3.org/2000/svg">
</g>
<g xmlns="http://www.w3.org/2000/svg">
</g>
<g xmlns="http://www.w3.org/2000/svg">
</g>
<g xmlns="http://www.w3.org/2000/svg">
</g>
<g xmlns="http://www.w3.org/2000/svg">
</g>
</g></svg>