<svg xmlns="http://www.w3.org/2000/svg" width="16" height="16" viewBox="0 0 16 16" fill="none">
  <path d="M3.33333 7.33331L4.33333 4.33331H11.6667L12.6667 7.33331M11.6667 10.6666C11.4015 10.6666 11.1471 10.5613 10.9596 10.3738C10.772 10.1862 10.6667 9.93186 10.6667 9.66665C10.6667 9.40143 10.772 9.14708 10.9596 8.95954C11.1471 8.772 11.4015 8.66665 11.6667 8.66665C11.9319 8.66665 12.1862 8.772 12.3738 8.95954C12.5613 9.14708 12.6667 9.40143 12.6667 9.66665C12.6667 9.93186 12.5613 10.1862 12.3738 10.3738C12.1862 10.5613 11.9319 10.6666 11.6667 10.6666ZM4.33333 10.6666C4.06812 10.6666 3.81376 10.5613 3.62623 10.3738C3.43869 10.1862 3.33333 9.93186 3.33333 9.66665C3.33333 9.40143 3.43869 9.14708 3.62623 8.95954C3.81376 8.772 4.06812 8.66665 4.33333 8.66665C4.59855 8.66665 4.8529 8.772 5.04044 8.95954C5.22798 9.14708 5.33333 9.40143 5.33333 9.66665C5.33333 9.93186 5.22798 10.1862 5.04044 10.3738C4.8529 10.5613 4.59855 10.6666 4.33333 10.6666ZM12.6133 3.99998C12.48 3.61331 12.1067 3.33331 11.6667 3.33331H4.33333C3.89333 3.33331 3.52 3.61331 3.38667 3.99998L2 7.99998V13.3333C2 13.5101 2.07024 13.6797 2.19526 13.8047C2.32029 13.9297 2.48986 14 2.66667 14H3.33333C3.51014 14 3.67971 13.9297 3.80474 13.8047C3.92976 13.6797 4 13.5101 4 13.3333V12.6666H12V13.3333C12 13.5101 12.0702 13.6797 12.1953 13.8047C12.3203 13.9297 12.4899 14 12.6667 14H13.3333C13.5101 14 13.6797 13.9297 13.8047 13.8047C13.9298 13.6797 14 13.5101 14 13.3333V7.99998L12.6133 3.99998Z" fill="#858699"/>
</svg>