<svg width="20" height="18" viewBox="0 0 20 18" fill="none" xmlns="http://www.w3.org/2000/svg">
<path d="M2.41667 6.91669L4.04167 2.04169H15.9583L17.5833 6.91669M15.9583 12.3334C15.5274 12.3334 15.114 12.1621 14.8093 11.8574C14.5045 11.5527 14.3333 11.1393 14.3333 10.7084C14.3333 10.2774 14.5045 9.86405 14.8093 9.55931C15.114 9.25456 15.5274 9.08335 15.9583 9.08335C16.3893 9.08335 16.8026 9.25456 17.1074 9.55931C17.4121 9.86405 17.5833 10.2774 17.5833 10.7084C17.5833 11.1393 17.4121 11.5527 17.1074 11.8574C16.8026 12.1621 16.3893 12.3334 15.9583 12.3334ZM4.04167 12.3334C3.61069 12.3334 3.19736 12.1621 2.89262 11.8574C2.58787 11.5527 2.41667 11.1393 2.41667 10.7084C2.41667 10.2774 2.58787 9.86405 2.89262 9.55931C3.19736 9.25456 3.61069 9.08335 4.04167 9.08335C4.47264 9.08335 4.88597 9.25456 5.19072 9.55931C5.49546 9.86405 5.66667 10.2774 5.66667 10.7084C5.66667 11.1393 5.49546 11.5527 5.19072 11.8574C4.88597 12.1621 4.47264 12.3334 4.04167 12.3334ZM17.4967 1.50002C17.28 0.871687 16.6733 0.416687 15.9583 0.416687H4.04167C3.32667 0.416687 2.72 0.871687 2.50333 1.50002L0.25 8.00002V16.6667C0.25 16.954 0.364137 17.2296 0.567301 17.4327C0.770465 17.6359 1.04602 17.75 1.33333 17.75H2.41667C2.70398 17.75 2.97953 17.6359 3.1827 17.4327C3.38586 17.2296 3.5 16.954 3.5 16.6667V15.5834H16.5V16.6667C16.5 16.954 16.6141 17.2296 16.8173 17.4327C17.0205 17.6359 17.296 17.75 17.5833 17.75H18.6667C18.954 17.75 19.2295 17.6359 19.4327 17.4327C19.6359 17.2296 19.75 16.954 19.75 16.6667V8.00002L17.4967 1.50002Z" fill="white"/>
</svg>
