<svg xmlns="http://www.w3.org/2000/svg" width="14" height="14" viewBox="0 0 14 14" fill="none">
  <g clip-path="url(#clip0_5_242)">
    <path d="M4.8084 4.28168L1.08674 4.82127L1.02082 4.83468C0.921033 4.86117 0.830066 4.91367 0.757206 4.98682C0.684346 5.05996 0.632204 5.15113 0.606105 5.25102C0.580006 5.35091 0.580885 5.45594 0.608652 5.55538C0.636418 5.65481 0.690079 5.7451 0.764152 5.81702L3.46032 8.44143L2.82449 12.1485L2.8169 12.2127C2.81079 12.3159 2.83222 12.4189 2.879 12.5111C2.92577 12.6033 2.99621 12.6814 3.0831 12.7374C3.16999 12.7934 3.2702 12.8254 3.37349 12.8299C3.47677 12.8345 3.57941 12.8115 3.6709 12.7633L6.9994 11.0133L10.3203 12.7633L10.3787 12.7902C10.4749 12.8281 10.5796 12.8397 10.6818 12.8239C10.7841 12.808 10.8803 12.7652 10.9606 12.6999C11.0409 12.6346 11.1023 12.5491 11.1386 12.4522C11.175 12.3553 11.1849 12.2505 11.1673 12.1485L10.5309 8.44143L13.2282 5.81643L13.2737 5.76685C13.3387 5.6868 13.3813 5.59095 13.3972 5.48906C13.4131 5.38718 13.4017 5.2829 13.3642 5.18686C13.3267 5.09081 13.2644 5.00643 13.1836 4.94232C13.1028 4.8782 13.0065 4.83663 12.9045 4.82185L9.18282 4.28168L7.51915 0.910016C7.47101 0.812328 7.39649 0.730066 7.30401 0.672543C7.21154 0.615021 7.10481 0.584534 6.9959 0.584534C6.887 0.584534 6.78027 0.615021 6.68779 0.672543C6.59532 0.730066 6.52079 0.812328 6.47265 0.910016L4.8084 4.28168Z" fill="white" fill-opacity="0.14"/>
  </g>
  <defs>
    <clipPath id="clip0_5_242">
      <rect width="14" height="14" fill="white"/>
    </clipPath>
  </defs>
</svg>