<svg width="6" height="14" viewBox="0 0 6 14" fill="none" xmlns="http://www.w3.org/2000/svg">
<path d="M4.71106 0.399414C4.38491 0.399414 4.07211 0.528978 3.84149 0.759603C3.61086 0.990228 3.4813 1.30302 3.4813 1.62918C3.4813 1.95533 3.61086 2.26812 3.84149 2.49875C4.07211 2.72937 4.38491 2.85894 4.71106 2.85894C5.03721 2.85894 5.35001 2.72937 5.58063 2.49875C5.81126 2.26812 5.94082 1.95533 5.94082 1.62918C5.94082 1.30302 5.81126 0.990228 5.58063 0.759603C5.35001 0.528978 5.03721 0.399414 4.71106 0.399414ZM4.41592 4.31006C3.44031 4.39204 0.775822 6.51543 0.775822 6.51543C0.611853 6.63841 0.661044 6.63021 0.792219 6.85977C0.923394 7.08112 0.906997 7.09752 1.06277 6.99094C1.22673 6.88436 1.49728 6.71219 1.9482 6.43345C3.68626 5.31846 2.22694 7.89277 1.48089 12.2297C1.18574 14.3777 3.12057 13.2709 3.62067 12.943C4.11258 12.6233 5.43252 11.7132 5.5637 11.623C5.74406 11.5001 5.61289 11.4017 5.47351 11.1967C5.37513 11.0574 5.27675 11.1557 5.27675 11.1557C4.74385 11.5083 3.76824 12.2461 3.63707 11.7788C3.4813 11.3115 4.48151 8.10592 5.0308 5.90055C5.12098 5.37585 5.36693 4.22807 4.41592 4.31006Z" fill="white" fill-opacity="0.15"/>
</svg>
