<svg xmlns="http://www.w3.org/2000/svg" width="14" height="15" viewBox="0 0 14 15" fill="none">
  <path fill-rule="evenodd" clip-rule="evenodd" d="M7 13.625C8.62445 13.625 10.1824 12.9797 11.331 11.831C12.4797 10.6824 13.125 9.12445 13.125 7.5C13.125 5.87555 12.4797 4.31763 11.331 3.16897C10.1824 2.02031 8.62445 1.375 7 1.375C5.37555 1.375 3.81763 2.02031 2.66897 3.16897C1.52031 4.31763 0.875 5.87555 0.875 7.5C0.875 9.12445 1.52031 10.6824 2.66897 11.831C3.81763 12.9797 5.37555 13.625 7 13.625ZM4.48087 10.0191L3.59712 10.9029C2.92406 10.2298 2.4657 9.37234 2.27999 8.4388C2.09428 7.50526 2.18957 6.53761 2.55381 5.65823C2.91805 4.77885 3.53488 4.02723 4.3263 3.49841C5.11771 2.9696 6.04817 2.68735 7 2.68735C7.95183 2.68735 8.88229 2.9696 9.6737 3.49841C10.4651 4.02723 11.0819 4.77885 11.4462 5.65823C11.8104 6.53761 11.9057 7.50526 11.72 8.4388C11.5343 9.37234 11.0759 10.2298 10.4029 10.9029L9.51912 10.0191C9.27532 9.77525 8.98586 9.5818 8.66727 9.44983C8.34868 9.31786 8.00721 9.24996 7.66237 9.25H6.33762C5.99278 9.24996 5.65132 9.31786 5.33273 9.44983C5.01414 9.5818 4.72468 9.77525 4.48087 10.0191Z" fill="#858699"/>
  <path d="M7 4C6.53587 4 6.09075 4.18437 5.76256 4.51256C5.43437 4.84075 5.25 5.28587 5.25 5.75V6.1875C5.25 6.65163 5.43437 7.09675 5.76256 7.42494C6.09075 7.75313 6.53587 7.9375 7 7.9375C7.46413 7.9375 7.90925 7.75313 8.23744 7.42494C8.56562 7.09675 8.75 6.65163 8.75 6.1875V5.75C8.75 5.28587 8.56562 4.84075 8.23744 4.51256C7.90925 4.18437 7.46413 4 7 4Z" fill="#858699"/>
</svg>