<svg width="13" height="15" viewBox="0 0 13 15" fill="none" xmlns="http://www.w3.org/2000/svg">
<path d="M7.875 14.5H5.125V13.8H7.875V14.5ZM7.1875 6.1V4H5.8125V6.1L5.125 7.15V13.1H7.875V7.15L7.1875 6.1ZM6.5 0.5C6.5 0.5 5.8125 1.2 5.8125 2.6V3.3H7.1875V2.6C7.1875 2.6 7.1875 1.2 6.5 0.5ZM3.75 14.5H1V13.8H3.75V14.5ZM3.0625 6.1V4H1.6875V6.1L1 7.15V13.1H3.75V7.15L3.0625 6.1ZM2.375 0.5C2.375 0.5 1.6875 1.2 1.6875 2.6V3.3H3.0625V2.6C3.0625 2.6 3.0625 1.2 2.375 0.5ZM12 14.5H9.25V13.8H12V14.5ZM11.3125 6.1V4H9.9375V6.1L9.25 7.15V13.1H12V7.15L11.3125 6.1ZM10.625 0.5C10.625 0.5 9.9375 1.2 9.9375 2.6V3.3H11.3125V2.6C11.3125 2.6 11.3125 1.2 10.625 0.5Z" fill="#F5BE47"/>
</svg>
