<svg width="17" height="17" viewBox="0 0 17 17" fill="none" xmlns="http://www.w3.org/2000/svg">
<path d="M3.625 17C3.17812 17 2.79571 16.8416 2.47775 16.5248C2.15979 16.208 2.00054 15.8267 2 15.381V7.28571C2 6.84048 2.15925 6.45946 2.47775 6.14267C2.79625 5.82587 3.17867 5.66721 3.625 5.66667H4.4375V4.04762C4.4375 2.92778 4.83373 1.97335 5.62619 1.18433C6.41865 0.395317 7.37658 0.000539683 8.5 0C9.62396 0 10.5822 0.394778 11.3746 1.18433C12.1671 1.97389 12.563 2.92832 12.5625 4.04762V5.66667H13.375C13.8219 5.66667 14.2046 5.82533 14.5231 6.14267C14.8416 6.46 15.0005 6.84102 15 7.28571V15.381C15 15.8262 14.841 16.2075 14.5231 16.5248C14.2051 16.8421 13.8224 17.0005 13.375 17H3.625ZM8.5 12.9524C8.94687 12.9524 9.32956 12.794 9.64806 12.4772C9.96656 12.1604 10.1255 11.7791 10.125 11.3333C10.125 10.8881 9.96602 10.5071 9.64806 10.1903C9.3301 9.87349 8.94742 9.71482 8.5 9.71428C8.05312 9.71428 7.67071 9.87295 7.35275 10.1903C7.03479 10.5076 6.87554 10.8886 6.875 11.3333C6.875 11.7786 7.03425 12.1599 7.35275 12.4772C7.67125 12.7945 8.05367 12.9529 8.5 12.9524ZM6.0625 5.66667H10.9375V4.04762C10.9375 3.37302 10.7005 2.7996 10.2266 2.32738C9.7526 1.85516 9.17708 1.61905 8.5 1.61905C7.82292 1.61905 7.2474 1.85516 6.77344 2.32738C6.29948 2.7996 6.0625 3.37302 6.0625 4.04762V5.66667Z" fill="#F5BE47"/>
</svg>
