<svg width="22" height="22" viewBox="0 0 22 22" fill="none" xmlns="http://www.w3.org/2000/svg">
<g opacity="0.5">
<path d="M8.25 1.83301C8.75626 1.83301 9.16667 2.24341 9.16667 2.74967V3.66634H12.8333V2.74967C12.8333 2.24341 13.2437 1.83301 13.75 1.83301C14.2563 1.83301 14.6667 2.24341 14.6667 2.74967V3.66634H17.4167C18.4292 3.66634 19.25 4.48715 19.25 5.49967V17.4163C19.25 18.4289 18.4292 19.2497 17.4167 19.2497H4.58333C3.57081 19.2497 2.75 18.4289 2.75 17.4163V5.49967C2.75 4.48715 3.57081 3.66634 4.58333 3.66634H7.33333V2.74967C7.33333 2.24341 7.74374 1.83301 8.25 1.83301ZM7.33333 5.49967H4.58333V8.24967H17.4167V5.49967H14.6667V6.41634C14.6667 6.9226 14.2563 7.33301 13.75 7.33301C13.2437 7.33301 12.8333 6.9226 12.8333 6.41634V5.49967H9.16667V6.41634C9.16667 6.9226 8.75626 7.33301 8.25 7.33301C7.74374 7.33301 7.33333 6.9226 7.33333 6.41634V5.49967ZM17.4167 10.083H4.58333V17.4163H17.4167V10.083Z" fill="white"/>
</g>
</svg>
