<svg width="22" height="23" viewBox="0 0 22 23" fill="none" xmlns="http://www.w3.org/2000/svg">
<g opacity="0.5">
<path d="M9.16658 4.16634C6.12902 4.16634 3.66659 6.62877 3.66659 9.66634C3.66659 12.7039 6.12902 15.1663 9.16658 15.1663C12.2042 15.1663 14.6666 12.7039 14.6666 9.66634C14.6666 6.62877 12.2042 4.16634 9.16658 4.16634ZM1.83325 9.66634C1.83325 5.61625 5.1165 2.33301 9.16658 2.33301C13.2167 2.33301 16.4999 5.61625 16.4999 9.66634C16.4999 11.361 15.9251 12.9214 14.9598 14.1632L19.8981 19.1015C20.2561 19.4595 20.2561 20.0399 19.8981 20.3979C19.5401 20.7558 18.9597 20.7558 18.6017 20.3979L13.6634 15.4595C12.4216 16.4248 10.8612 16.9997 9.16658 16.9997C5.1165 16.9997 1.83325 13.7164 1.83325 9.66634Z" fill="white"/>
</g>
</svg>
