<svg width="416" height="417" viewBox="0 0 416 417" fill="none" xmlns="http://www.w3.org/2000/svg">
<g filter="url(#filter0_d_416_827)">
<path d="M187.624 238.848L186.466 238.269L185.209 238.583L175.952 240.898L178.402 231.861L178.818 230.326L177.936 229.004L176.98 227.569C173.535 221.801 171.503 215.17 171.503 208.375V208.355L171.502 208.336C171.273 187.973 187.747 171.5 207.876 171.5C217.713 171.5 226.859 175.382 233.739 182.261C240.61 189.132 244.5 198.526 244.5 208.124C244.5 228.259 228.011 244.748 207.876 244.748C201.438 244.748 195.048 243.14 189.364 239.73L189.248 239.661L189.128 239.601L187.624 238.848Z" stroke="#4AD199" stroke-width="7"/>
<path d="M227.436 217.403L230.195 218.657C230.696 218.908 230.947 219.159 230.947 219.159V220.914L230.946 220.919C230.695 222.171 230.445 223.423 229.944 224.425C229.693 224.927 229.192 225.428 228.69 225.93C228.189 226.431 227.687 226.682 227.186 227.183L226.684 227.685C226.182 228.187 225.681 228.187 224.929 228.688C223.925 229.19 222.421 229.691 221.167 229.691H218.659C217.907 229.44 216.904 229.44 216.151 229.19C209.38 227.434 203.362 224.174 198.096 219.66C197.594 218.908 196.842 218.406 196.089 217.654L195.086 216.651C191.074 212.889 188.065 208.626 185.808 203.861L185.557 203.109C184.804 201.353 184.303 199.347 184.303 197.341C184.303 194.582 185.306 191.824 187.061 189.567C187.563 189.065 187.814 188.564 188.315 188.062C188.817 187.812 189.318 187.31 189.82 187.059L190.071 186.809C190.573 186.809 191.074 186.558 191.576 186.558H194.334C195.086 186.809 195.588 187.059 196.089 187.812C196.842 189.316 199.851 196.087 200.102 197.341C200.352 198.093 200.102 199.096 199.6 199.849C199.099 200.35 198.848 201.102 198.346 201.604C197.594 202.356 196.591 203.61 196.591 203.61C196.34 203.861 196.34 204.363 196.34 204.864C196.591 205.366 196.591 205.616 196.842 205.867L197.092 206.369C198.346 208.626 200.102 210.632 201.857 212.388C202.359 212.889 203.111 213.391 203.612 213.892C205.619 215.898 208.126 217.403 210.885 218.657L212.139 219.159C212.39 219.409 212.891 219.66 213.142 219.66H213.393C213.894 219.66 214.396 219.409 214.647 218.908C218.158 214.895 218.408 214.645 218.408 214.645C218.91 214.394 219.411 214.143 220.164 214.143C220.415 214.143 220.665 214.394 220.916 214.394C223.424 215.648 227.436 217.403 227.436 217.403Z" fill="#4AD199"/>
</g>
<defs>
<filter id="filter0_d_416_827" x="0" y="0" width="416" height="416.248" filterUnits="userSpaceOnUse" color-interpolation-filters="sRGB">
<feFlood flood-opacity="0" result="BackgroundImageFix"/>
<feColorMatrix in="SourceAlpha" type="matrix" values="0 0 0 0 0 0 0 0 0 0 0 0 0 0 0 0 0 0 127 0" result="hardAlpha"/>
<feOffset/>
<feGaussianBlur stdDeviation="84"/>
<feComposite in2="hardAlpha" operator="out"/>
<feColorMatrix type="matrix" values="0 0 0 0 0.290196 0 0 0 0 0.819608 0 0 0 0 0.6 0 0 0 1 0"/>
<feBlend mode="normal" in2="BackgroundImageFix" result="effect1_dropShadow_416_827"/>
<feBlend mode="normal" in="SourceGraphic" in2="effect1_dropShadow_416_827" result="shape"/>
</filter>
</defs>
</svg>
