<svg width="19" height="19" viewBox="0 0 19 19" fill="none" xmlns="http://www.w3.org/2000/svg">
<rect x="1" y="1" width="17" height="17" rx="8.5" fill="#04A87E" stroke="#121B22" stroke-width="2"/>
<path d="M9.9375 9.0625V6.4375C9.9375 6.19588 9.74162 6 9.5 6C9.25838 6 9.0625 6.19588 9.0625 6.4375V9.0625H6.4375C6.19588 9.0625 6 9.25838 6 9.5C6 9.74162 6.19588 9.9375 6.4375 9.9375H9.0625V12.5625C9.0625 12.8041 9.25838 13 9.5 13C9.74162 13 9.9375 12.8041 9.9375 12.5625V9.9375H12.5625C12.8041 9.9375 13 9.74162 13 9.5C13 9.25838 12.8041 9.0625 12.5625 9.0625H9.9375Z" fill="#F3F8F9"/>
</svg>
